<svg width="64" height="64" viewBox="0 0 64 64" fill="none" xmlns="http://www.w3.org/2000/svg">
<path d="M35.5404 63.9727V56.8646H42.6484V63.9727H35.5404ZM28.4323 56.8646V39.0944H35.5404V56.8646H28.4323ZM56.8646 46.2025V31.9863H63.9727V46.2025H56.8646ZM49.7565 31.9863V24.8783H56.8646V31.9863H49.7565ZM7.10807 39.0944V31.9863H14.2161V39.0944H7.10807ZM0 31.9863V24.8783H7.10807V31.9863H0ZM31.9863 7.10807V0H39.0944V7.10807H31.9863ZM5.33105 15.9932H15.9932V5.33105H5.33105V15.9932ZM0 17.7702V3.55404C0 2.54706 0.341188 1.70357 1.02356 1.02356C1.70594 0.343557 2.54943 0.00236936 3.55404 0H17.7702C18.7772 0 19.6218 0.341188 20.3042 1.02356C20.9866 1.70594 21.3266 2.54943 21.3242 3.55404V17.7702C21.3242 18.7772 20.983 19.6218 20.3007 20.3042C19.6183 20.9866 18.7748 21.3266 17.7702 21.3242H3.55404C2.54706 21.3242 1.70357 20.983 1.02356 20.3007C0.343557 19.6183 0.00236936 18.7748 0 17.7702ZM5.33105 58.6416H15.9932V47.9795H5.33105V58.6416ZM0 60.4186V46.2025C0 45.1955 0.341188 44.352 1.02356 43.672C1.70594 42.992 2.54943 42.6508 3.55404 42.6484H17.7702C18.7772 42.6484 19.6218 42.9896 20.3042 43.672C20.9866 44.3544 21.3266 45.1979 21.3242 46.2025V60.4186C21.3242 61.4256 20.983 62.2703 20.3007 62.9526C19.6183 63.635 18.7748 63.975 17.7702 63.9727H3.55404C2.54706 63.9727 1.70357 63.6315 1.02356 62.9491C0.343557 62.2667 0.00236936 61.4232 0 60.4186ZM47.9795 15.9932H58.6416V5.33105H47.9795V15.9932ZM42.6484 17.7702V3.55404C42.6484 2.54706 42.9896 1.70357 43.672 1.02356C44.3544 0.343557 45.1979 0.00236936 46.2025 0H60.4186C61.4256 0 62.2703 0.341188 62.9526 1.02356C63.635 1.70594 63.975 2.54943 63.9727 3.55404V17.7702C63.9727 18.7772 63.6315 19.6218 62.9491 20.3042C62.2667 20.9866 61.4232 21.3266 60.4186 21.3242H46.2025C45.1955 21.3242 44.352 20.983 43.672 20.3007C42.992 19.6183 42.6508 18.7748 42.6484 17.7702ZM49.7565 63.9727V53.3105H42.6484V46.2025H56.8646V56.8646H63.9727V63.9727H49.7565ZM35.5404 39.0944V31.9863H49.7565V39.0944H35.5404ZM21.3242 39.0944V31.9863H14.2161V24.8783H35.5404V31.9863H28.4323V39.0944H21.3242ZM24.8783 21.3242V7.10807H31.9863V14.2161H39.0944V21.3242H24.8783ZM7.99658 13.3276V7.99658H13.3276V13.3276H7.99658ZM7.99658 55.9761V50.645H13.3276V55.9761H7.99658ZM50.645 13.3276V7.99658H55.9761V13.3276H50.645Z" fill="#3F4352"/>
</svg>
