<svg width="18" height="15" viewBox="0 0 18 15" fill="none" xmlns="http://www.w3.org/2000/svg">
<path d="M15.7386 0.184595C15.9662 0.408347 15.9869 0.758481 15.8007 1.00521L15.7386 1.0759L2.25917 14.3313C2.00888 14.5774 1.60308 14.5774 1.35279 14.3313C1.12526 14.1075 1.10457 13.7574 1.29074 13.5106L1.35279 13.4399L3.03798 11.7839C1.8256 10.6957 0.808878 9.24107 0.051968 7.50712C-0.0175082 7.34796 -0.0173146 7.1677 0.0525034 7.00868C0.928853 5.01276 2.14535 3.38477 3.60492 2.25595C5.08232 1.10612 6.78772 0.49134 8.54538 0.49134C10.1307 0.49134 11.6696 0.99285 13.0477 1.93868L14.8323 0.184595C15.0826 -0.0615317 15.4884 -0.0615317 15.7386 0.184595ZM15.422 4.23539C16.0423 5.04566 16.5842 5.97585 17.0381 7.00793C17.1082 7.16742 17.1083 7.34832 17.0383 7.50786C15.2631 11.552 12.0785 14.0244 8.54538 14.0244C7.74107 14.0244 6.94526 13.8965 6.17879 13.6449C5.84304 13.5348 5.66169 13.1778 5.77375 12.8476C5.8858 12.5174 6.24883 12.3391 6.58458 12.4493C7.22061 12.658 7.87942 12.7639 8.54538 12.7639C11.3693 12.7639 13.9982 10.8326 15.6147 7.53951L15.7478 7.2591L15.7025 7.15935C15.3772 6.47099 15.0095 5.8396 14.6039 5.27194L14.3979 4.99344C14.1851 4.71535 14.2417 4.32021 14.5245 4.11088C14.8073 3.90155 15.2092 3.95729 15.422 4.23539ZM8.54538 1.75183C7.08433 1.75183 5.65697 2.26639 4.39885 3.24554C3.1941 4.17729 2.16151 5.51663 1.38184 7.17289L1.34197 7.2591L1.38072 7.34354C2.05837 8.79054 2.93156 9.99369 3.94499 10.8911L5.77166 9.09436C5.40286 8.56051 5.20072 7.92817 5.20072 7.25893C5.20072 5.43782 6.6942 3.9682 8.54538 3.9682C9.22223 3.9682 9.87209 4.16838 10.4138 4.52933L12.1251 2.84658C11.0077 2.12659 9.78996 1.75183 8.54538 1.75183ZM11.2257 7.10067L11.3123 7.11014C11.6607 7.17176 11.8923 7.49942 11.8297 7.842C11.5841 9.18483 10.5101 10.243 9.1454 10.4867C8.79713 10.5488 8.46355 10.3216 8.40033 9.97913C8.3371 9.63665 8.56818 9.30862 8.91645 9.24644C9.75476 9.09679 10.4172 8.4441 10.5681 7.61888C10.6255 7.30485 10.9103 7.08729 11.2257 7.10067ZM8.54538 5.2287C7.40231 5.2287 6.48252 6.13379 6.48252 7.25893C6.48252 7.58671 6.56004 7.89791 6.70539 8.17637L9.47995 5.44812C9.19649 5.30609 8.87663 5.2287 8.54538 5.2287Z" fill="#1C1E24"/>
</svg>
