<svg width="20" height="20" viewBox="0 0 20 20" fill="none" xmlns="http://www.w3.org/2000/svg">
<path d="M12.4999 15.8333C12.7209 15.8333 12.9329 15.9211 13.0892 16.0774C13.2455 16.2337 13.3333 16.4457 13.3333 16.6667C13.3333 16.8877 13.2455 17.0996 13.0892 17.2559C12.9329 17.4122 12.7209 17.5 12.4999 17.5H7.49992C7.27891 17.5 7.06694 17.4122 6.91066 17.2559C6.75438 17.0996 6.66659 16.8877 6.66659 16.6667C6.66659 16.4457 6.75438 16.2337 6.91066 16.0774C7.06694 15.9211 7.27891 15.8333 7.49992 15.8333H12.4999ZM19.1666 12.1667C19.1666 12.9181 18.8681 13.6388 18.3367 14.1701C17.8054 14.7015 17.0847 15 16.3333 15H3.66659C2.91514 15 2.19447 14.7015 1.66312 14.1701C1.13176 13.6388 0.833252 12.9181 0.833252 12.1667V5.33333C0.833252 4.58189 1.13176 3.86122 1.66312 3.32986C2.19447 2.79851 2.91514 2.5 3.66659 2.5H16.3333L16.4791 2.50417C17.2043 2.54154 17.8874 2.8559 18.3875 3.38237C18.8876 3.90883 19.1665 4.6072 19.1666 5.33333V12.1667Z" fill="#28475C"/>
</svg>
