<svg width="20" height="20" viewBox="0 0 20 20" fill="none" xmlns="http://www.w3.org/2000/svg">
<path d="M12.4999 16.6667H7.49992M3.33325 11.5V6.83335C3.33325 5.90002 3.33325 5.43335 3.51492 5.07669C3.67492 4.76252 3.92909 4.50835 4.24325 4.34835C4.59992 4.16669 5.06659 4.16669 5.99992 4.16669H13.9999C14.9333 4.16669 15.3999 4.16669 15.7558 4.34835C16.0699 4.50835 16.3249 4.76252 16.4849 5.07669C16.6666 5.43252 16.6666 5.89919 16.6666 6.83085V11.5025C16.6666 12.4342 16.6666 12.9 16.4849 13.2559C16.3251 13.5699 16.0698 13.8252 15.7558 13.985C15.3999 14.1667 14.9341 14.1667 14.0024 14.1667H5.99742C5.06575 14.1667 4.59909 14.1667 4.24325 13.985C3.92954 13.825 3.67456 13.5698 3.51492 13.2559C3.33325 12.9 3.33325 12.4334 3.33325 11.5Z" stroke="#777E90" stroke-linecap="round" stroke-linejoin="round"/>
</svg>
