<svg width="22" height="16" viewBox="0 0 22 16" fill="none" xmlns="http://www.w3.org/2000/svg">
    <path d="M20.2342 5.277C14.9202 0.241001 6.58016 0.241001 1.26616 5.277C1.19465 5.34476 1.1105 5.39778 1.01851 5.43302C0.926515 5.46826 0.828481 5.48503 0.730005 5.48239C0.631528 5.47974 0.534537 5.45772 0.44457 5.41759C0.354602 5.37746 0.27342 5.32 0.205658 5.2485C0.137895 5.177 0.0848808 5.09284 0.0496405 5.00085C0.0144001 4.90886 -0.00237571 4.81082 0.000270758 4.71235C0.00561554 4.51347 0.0897471 4.32485 0.234157 4.188C6.12716 -1.396 15.3742 -1.396 21.2662 4.188C21.4107 4.32485 21.495 4.51352 21.5004 4.71249C21.5058 4.91147 21.432 5.10446 21.2952 5.249C21.1583 5.39354 20.9696 5.4778 20.7707 5.48324C20.5717 5.48868 20.3787 5.41385 20.2342 5.277ZM3.22016 7.62C7.37916 3.461 14.1212 3.461 18.2802 7.62C18.4126 7.76218 18.4848 7.95022 18.4813 8.14452C18.4779 8.33882 18.3992 8.52421 18.2618 8.66162C18.1244 8.79904 17.939 8.87775 17.7447 8.88118C17.5504 8.8846 17.3623 8.81248 17.2202 8.68C15.5042 6.96406 13.1769 6.00005 10.7502 6.00005C8.32344 6.00005 5.99611 6.96406 4.28016 8.68C4.2115 8.75369 4.1287 8.81279 4.0367 8.85378C3.9447 8.89477 3.84538 8.91681 3.74468 8.91859C3.64398 8.92037 3.54395 8.90184 3.45056 8.86412C3.35717 8.8264 3.27234 8.77026 3.20112 8.69904C3.1299 8.62782 3.07376 8.54299 3.03603 8.4496C2.99831 8.35621 2.97979 8.25618 2.98157 8.15548C2.98334 8.05477 3.00538 7.95546 3.04638 7.86346C3.08737 7.77146 3.14647 7.68866 3.22016 7.62ZM6.22016 10.878C7.42167 9.67672 9.05113 9.00187 10.7502 9.00187C12.4492 9.00187 14.0786 9.67672 15.2802 10.878C15.4126 11.0202 15.4848 11.2082 15.4813 11.4025C15.4779 11.5968 15.3992 11.7822 15.2618 11.9196C15.1244 12.057 14.939 12.1357 14.7447 12.1392C14.5504 12.1426 14.3623 12.0705 14.2202 11.938C13.7645 11.4823 13.2235 11.1208 12.6281 10.8741C12.0327 10.6275 11.3946 10.5005 10.7502 10.5005C10.1057 10.5005 9.46757 10.6275 8.87218 10.8741C8.2768 11.1208 7.73582 11.4823 7.28016 11.938C7.13798 12.0705 6.94994 12.1426 6.75564 12.1392C6.56133 12.1357 6.37595 12.057 6.23854 11.9196C6.10112 11.7822 6.02241 11.5968 6.01898 11.4025C6.01555 11.2082 6.08768 11.0202 6.22016 10.878ZM10.7502 13.25C10.9491 13.25 11.1398 13.329 11.2805 13.4697C11.4211 13.6103 11.5002 13.8011 11.5002 14V14.5C11.5002 14.6989 11.4211 14.8897 11.2805 15.0303C11.1398 15.171 10.9491 15.25 10.7502 15.25C10.5512 15.25 10.3605 15.171 10.2198 15.0303C10.0792 14.8897 10.0002 14.6989 10.0002 14.5V14C10.0002 13.8011 10.0792 13.6103 10.2198 13.4697C10.3605 13.329 10.5512 13.25 10.7502 13.25Z" fill="black" />
</svg>
