<svg width="24" height="24" viewBox="0 0 24 24" fill="none" xmlns="http://www.w3.org/2000/svg">
<path d="M14.926 2.9113L8.274 6.1053C7.77193 6.34999 7.2009 6.41427 6.657 6.2873C6.42752 6.23039 6.19562 6.18367 5.962 6.1473C4.137 5.9403 3 7.3843 3 9.0453V9.9573C3 11.6173 4.137 13.0623 5.962 12.8533C6.19587 12.8187 6.42783 12.7723 6.657 12.7143C7.20101 12.5876 7.77205 12.6523 8.274 12.8973L14.926 16.0903C16.453 16.8233 17.217 17.1903 18.068 16.9043C18.92 16.6183 19.212 16.0053 19.796 14.7793C20.5885 13.1327 21.0001 11.3287 21.0001 9.5013C21.0001 7.67388 20.5885 5.86992 19.796 4.2233C19.212 2.9973 18.92 2.3833 18.068 2.0983C17.217 1.8123 16.453 2.1773 14.926 2.9113Z" stroke="#1C1E24" stroke-linecap="round" stroke-linejoin="round"/>
<path d="M7.50011 12.5V6.5M11.4581 20.77L9.96711 22C6.60511 19.334 7.01611 18.063 7.01611 13H8.15011C8.61011 15.86 9.69511 17.216 11.1931 18.197C12.1151 18.801 12.3051 20.072 11.4581 20.77Z" stroke="#1C1E24" stroke-linecap="round" stroke-linejoin="round"/>
</svg>
