<svg width="17" height="15" viewBox="0 0 17 15" fill="none" xmlns="http://www.w3.org/2000/svg">
<path d="M3.5 0C2.83696 0 2.20107 0.263392 1.73223 0.732233C1.26339 1.20107 1 1.83696 1 2.5V5.337C1.31 5.189 1.647 5.086 2 5.035V2.5C2 2.10218 2.15804 1.72064 2.43934 1.43934C2.72064 1.15804 3.10218 1 3.5 1H10.5C10.8978 1 11.2794 1.15804 11.5607 1.43934C11.842 1.72064 12 2.10218 12 2.5V9.5C12 9.89782 11.842 10.2794 11.5607 10.5607C11.2794 10.842 10.8978 11 10.5 11H10V12H10.5C11.163 12 11.7989 11.7366 12.2678 11.2678C12.7366 10.7989 13 10.163 13 9.5V8.5L15.4 10.3C15.5486 10.4114 15.7252 10.4793 15.9102 10.496C16.0952 10.5126 16.2811 10.4775 16.4472 10.3944C16.6133 10.3114 16.753 10.1837 16.8507 10.0257C16.9483 9.86775 17 9.68571 17 9.5V2.5C17 2.31429 16.9483 2.13224 16.8507 1.97427C16.753 1.81629 16.6133 1.68863 16.4472 1.60557C16.2811 1.52252 16.0952 1.48736 15.9102 1.50404C15.7252 1.52072 15.5486 1.58857 15.4 1.7L13 3.5V2.5C13 1.83696 12.7366 1.20107 12.2678 0.732233C11.7989 0.263392 11.163 0 10.5 0H3.5ZM13 4.75L16 2.5V9.5L13 7.25V4.75ZM0 8.5C0 7.83696 0.263392 7.20107 0.732233 6.73223C1.20107 6.26339 1.83696 6 2.5 6H6.5C7.16304 6 7.79893 6.26339 8.26777 6.73223C8.73661 7.20107 9 7.83696 9 8.5V12.5C9 13.163 8.73661 13.7989 8.26777 14.2678C7.79893 14.7366 7.16304 15 6.5 15H2.5C1.83696 15 1.20107 14.7366 0.732233 14.2678C0.263392 13.7989 0 13.163 0 12.5V8.5ZM4.02 8.534C3.95524 8.48928 3.87987 8.46233 3.80144 8.45584C3.723 8.44935 3.64424 8.46354 3.573 8.497C3.51458 8.52271 3.46163 8.55937 3.417 8.605C3.37042 8.65196 3.33362 8.70769 3.30873 8.76897C3.28384 8.83025 3.27136 8.89586 3.272 8.962V12.037C3.27122 12.1033 3.28364 12.1691 3.30854 12.2306C3.33343 12.292 3.3703 12.3479 3.417 12.395C3.4634 12.4399 3.51676 12.4771 3.575 12.505C3.67646 12.5515 3.79158 12.5586 3.898 12.525C3.94421 12.5101 3.988 12.4885 4.028 12.461L6.324 10.894C6.39383 10.8479 6.4501 10.7841 6.487 10.709C6.52468 10.6333 6.54404 10.5497 6.54352 10.4651C6.543 10.3806 6.52261 10.2973 6.484 10.222C6.44415 10.1482 6.38638 10.0856 6.316 10.04L4.02 8.534Z" fill="#28475C"/>
</svg>
